<?xml version="1.0" encoding="UTF-8" standalone="no"?> <!-- Created with Vectornator for iOS (http://vectornator.io/) --><!DOCTYPE svg PUBLIC "-//W3C//DTD SVG 1.1//EN" "http://www.w3.org/Graphics/SVG/1.1/DTD/svg11.dtd">
<svg height="100%" style="fill-rule:nonzero;clip-rule:evenodd;stroke-linecap:round;stroke-linejoin:round;" xmlns:xlink="http://www.w3.org/1999/xlink" xmlns="http://www.w3.org/2000/svg" xml:space="preserve" width="100%" xmlns:vectornator="http://vectornator.io" version="1.1" viewBox="0 0 595.28 841.89">
<metadata>
<vectornator:setting key="DimensionsVisible" value="1"/>
<vectornator:setting key="PencilOnly" value="0"/>
<vectornator:setting key="SnapToPoints" value="0"/>
<vectornator:setting key="OutlineMode" value="0"/>
<vectornator:setting key="CMYKEnabledKey" value="0"/>
<vectornator:setting key="RulersVisible" value="1"/>
<vectornator:setting key="SnapToEdges" value="0"/>
<vectornator:setting key="GuidesVisible" value="1"/>
<vectornator:setting key="DisplayWhiteBackground" value="0"/>
<vectornator:setting key="doHistoryDisabled" value="0"/>
<vectornator:setting key="SnapToGuides" value="1"/>
<vectornator:setting key="TimeLapseWatermarkDisabled" value="0"/>
<vectornator:setting key="Units" value="Points"/>
<vectornator:setting key="DynamicGuides" value="0"/>
<vectornator:setting key="IsolateActiveLayer" value="0"/>
<vectornator:setting key="SnapToGrid" value="0"/>
</metadata>
<defs>
<path d="M0+0L595.28+0L595.28+841.89L0+841.89L0+0Z" id="Mask"/>
</defs>
<g id="Untitled" vectornator:layerName="Untitled">
<g opacity="1" vectornator:mask="#Mask">
<clipPath id="ClipPath">
<use xlink:href="#Mask" fill="none" overflow="visible"/>
</clipPath>
<g clip-path="url(#ClipPath)">
<g opacity="1">
<path d="M195.647+171.903C205.248+182.303+207.608+199.942+217.848+209.703C213.197+168.188+264.241+178.803+302.147+178.803C316.607+178.803+329.433+177.603+343.247+177.603C357.811+177.603+371.086+178.53+378.947+184.203C386.563+189.698+390.147+202.269+387.647+215.403C395.936+211.702+397.283+200.121+402.647+191.103C406.125+185.257+409.654+179.8+411.947+174.303C420.761+195.09+427.694+217.756+436.247+238.803C459.407+238.062+480.711+235.466+503.447+234.303C501.633+242.617+494.889+247.176+489.947+252.603C484.907+258.138+478.589+262.45+475.548+270.003C484.736+267.293+496.166+269.983+501.647+275.103C508.497+281.501+512.986+294.511+516.947+305.403C526.689+332.19+537.811+361.916+547.848+388.503C551.256+397.53+555.687+410.211+549.947+419.403C544.785+427.672+532.419+430.952+523.247+435.303C536.094+443.257+557.423+442.728+574.247+446.703C575.076+447.29+572.831+448.488+571.848+449.103C554.443+459.985+532.34+468.305+516.048+480.603C521.981+499.169+530.862+514.788+536.747+533.403C517.179+524.971+500.038+514.113+479.147+507.003C481.38+525.824+506.272+529.13+506.747+550.503C507.017+562.631+500.232+567.019+492.348+573.003C466.968+592.265+445.391+612.615+421.247+633.903C412.512+641.607+403.051+653.237+388.247+653.403C373.574+653.569+367.505+643.262+361.548+634.203C355.688+625.292+350.472+615.729+340.247+609.903C338.916+629.676+342.777+646.743+345.048+663.903C325.619+655.331+312.474+637.877+294.047+627.303C273.35+638.205+259.289+657.343+239.748+668.403C242.477+650.132+245.645+632.3+247.848+613.503C226.655+619.892+227.812+654.393+198.947+652.203C190.821+651.586+185.016+645.677+179.147+640.503C165.127+628.14+152.897+616.674+138.947+603.903C130.833+596.474+121.55+587.246+111.947+579.603C102.643+572.197+89.516+566.346+86.447+553.803C83.171+540.411+90.396+530.534+96.947+524.703C104.646+517.851+112.422+513.947+115.848+502.803C91.595+506.35+74.633+519.789+52.547+526.503C59.539+506.294+67.796+487.352+75.647+468.003C60.756+455.33+43.228+443.871+26.147+432.903C23.866+431.438+20.9+430.582+19.547+428.103C33.571+424.927+51.604+425.759+65.748+422.703C61.252+414.898+47.84+411.742+47.748+398.103C47.708+392.153+50.812+385.728+53.147+380.103C60.042+363.503+66.639+347.704+73.547+331.203C77.855+320.913+82.892+309.474+87.047+298.503C91.17+287.617+93.997+273.516+100.848+266.103C109.425+256.82+127.388+261.947+137.748+265.503C132.896+250.855+118.967+245.283+112.547+232.203C132.98+232.369+154.708+233.843+174.647+235.503C184.034+216.689+189.085+193.541+195.647+171.903" opacity="1" fill="#8553a2"/>
<path d="M272.447+191.403C267.157+191.586+261.489+191.703+254.447+191.703C248.511+191.703+240.093+190.181+236.447+191.703C233.653+192.869+232.265+200.562+231.647+204.603C224.995+248.084+251.2+269.05+261.647+297.603C262.574+287.81+260.39+275.491+262.847+266.703C282.723+257.294+314.386+263.154+340.247+263.103C349.111+269.585+341.829+290.357+346.247+301.203C350.809+282.774+363.706+270.732+371.147+254.103C378.424+237.843+377.712+209.434+370.548+192.603C338.479+191.464+306.953+190.21+272.447+191.403" opacity="1" fill="#ffffff"/>
<path d="M271.848+272.403C269.546+284.966+271.379+299.886+270.948+314.103C290.283+309.228+315.183+313.001+335.747+314.103C337.759+301.392+337.619+285.165+335.747+272.403C317.161+268.462+290.386+268.329+271.848+272.403" opacity="1" fill="#ffffff"/>
<path d="M160.248+289.203C154.813+285.404+147.599+282.644+140.748+279.903C134.03+277.215+126.458+273.896+118.548+273.303C117.045+273.19+115.334+273.014+114.048+273.303C109.67+274.286+106.466+282.44+104.448+287.403C102.107+293.155+100.289+298.933+98.448+303.603C85.884+335.472+71.302+367.37+61.848+399.303C77.106+423.805+130.13+418.372+163.248+412.503C155.684+406.661+142.994+409.635+139.548+399.603C138.997+397.998+138.695+394.816+138.948+392.103C140.063+380.125+146.67+370.737+151.548+358.203C153.449+353.315+155.833+347.525+158.448+341.703C162.684+332.267+166.788+323.942+179.748+327.603C187.697+329.849+192.283+336.698+202.248+337.203C185.971+324.909+177.442+301.223+160.248+289.203" opacity="1" fill="#ffffff"/>
<path d="M516.947+344.403C511.419+328.779+505.872+310.964+498.947+296.103C497.219+292.39+493.668+282.75+490.247+282.603C489.688+282.579+489.577+282.864+489.049+282.903C479.662+283.592+471.266+287.789+463.549+290.703C460.7+291.778+457.157+291.933+454.848+293.103C453.398+293.837+450.942+296.832+449.147+298.803C436.869+312.287+425.415+325.445+413.447+338.103C412.728+338.864+411.124+339.442+411.348+340.803C419.516+340.616+425.93+333.4+435.947+336.003C448.621+356.529+457.59+380.76+462.647+408.903C458.078+416.533+445.854+416.51+438.647+421.503C458.992+421.39+474.49+432.555+495.049+430.803C514.672+429.13+527.697+419.157+540.348+409.503C533.546+387.646+525.017+367.206+516.947+344.403" opacity="1" fill="#ffffff"/>
<path d="M230.447+357.003C216.093+372.81+203.653+392.82+204.647+424.502C205.544+453.086+217.883+473.739+233.147+489.002C248.601+504.457+270.741+515.202+301.548+513.903C331.666+512.634+350.351+501.433+365.747+485.103C380.263+469.707+393.284+448.08+391.848+417.903C390.496+389.514+378.391+368.443+363.048+353.703C348.257+339.494+324.06+326.629+294.947+328.503C265.704+330.386+245.16+340.803+230.447+357.003" opacity="1" fill="#ffffff"/>
<path d="M148.248+396.003C160.856+401.194+172.362+407.489+186.647+411.003C191.791+388.247+200.809+367.764+210.647+350.703C196.331+347.52+187.097+339.254+171.647+337.203C163.218+356.174+154.533+374.888+148.248+396.003" opacity="1" fill="#ffffff"/>
<path d="M393.348+359.403C399.722+378.829+406.952+397.399+413.147+417.003C431.068+417.524+439.453+408.508+453.647+405.303C448.55+389.608+443.636+372.983+437.447+358.803C435.342+353.978+433.306+349.052+429.947+345.303C416.829+349.084+404.057+353.212+393.348+359.403" opacity="1" fill="#ffffff"/>
<path d="M148.547+486.903C137.838+494.045+131.842+507.449+123.047+517.503C119.026+522.099+113.772+526.304+108.947+531.603C105.076+535.854+97.745+542.192+98.447+549.303C98.906+553.943+105.546+558.931+109.547+562.203C136.917+584.583+160.952+607.071+186.647+630.003C190.478+633.421+196.267+639.164+202.248+638.703C207.362+638.308+212.801+632.052+215.748+628.503C219.672+623.774+222.711+618.966+225.947+615.003C233.668+605.549+242.991+600.639+249.047+590.703C254.101+582.412+254.13+569.445+255.947+557.103C257.413+547.153+260.501+536.691+257.147+527.703C248.097+530.873+244.469+537.717+239.147+545.103C234.792+551.149+229.136+560.825+219.947+561.303C212.811+561.674+206.791+556.318+202.248+552.603C197.038+548.343+193.168+544.371+188.447+540.303C184.055+536.518+179.009+532.84+174.047+528.603C167.162+522.724+158.155+515.043+163.547+502.803C167.467+493.904+179.614+485.672+186.347+478.803C188.146+476.969+194.059+471.431+189.047+469.803C178.641+478.601+160.026+479.248+148.547+486.903" opacity="1" fill="#ffffff"/>
<path d="M399.348+475.203C403.447+490.887+420.858+495.098+426.647+509.103C431.059+519.777+424.198+525.709+417.647+531.603C412.958+535.823+408.15+539.42+404.147+542.703C394.119+550.926+388.728+559.848+377.147+564.603C369.494+567.746+362.65+564.565+358.247+560.703C349.732+553.236+344.327+540.546+336.348+533.103C335.274+532.102+333.769+530.503+332.147+530.703C332.559+549.192+336.192+564.458+336.647+582.903C354.805+601.846+367.085+626.664+389.747+641.103C416.918+620.688+441.474+597.53+468.048+576.003C472.058+572.755+477.016+569.54+481.848+565.803C485.844+562.712+492.498+557.993+492.947+552.903C493.386+547.936+489.104+541.799+486.348+538.203C482.985+533.816+479.464+530.12+476.447+526.803C462.771+511.764+453.271+492.559+433.848+484.203C424.232+480.067+412.964+477.406+404.147+471.303C402.458+472.35+399.726+473.83+399.348+475.203" opacity="1" fill="#ffffff"/>
<path d="M198.047+478.203C190.099+490.154+177.676+497.631+171.647+511.503C187.092+525.357+201.697+540.053+219.047+552.003C228.237+543.796+236.645+532.785+244.547+523.503C245.713+522.134+247.699+520.803+247.248+519.603C226.067+510.583+216.063+490.387+198.047+478.203" opacity="1" fill="#ffffff"/>
<path d="M389.747+482.703C378.404+501.759+360.237+513.993+340.247+524.403C352.171+533.38+358.109+548.34+370.548+556.803C387.375+543.93+403.839+530.695+418.848+516.003C409.369+504.682+400.826+492.424+389.747+482.703" opacity="1" fill="#ffffff"/>
<path d="M328.848+353.403C330.338+371.639+341.841+381.72+352.247+393.303C360.808+402.831+371.274+413.724+372.348+428.703C373.653+446.927+357.398+465.938+337.548+461.103C333.311+460.072+328.558+457.756+325.247+454.503C314.41+443.853+315.218+420.722+291.048+423.904C290.551+419.622+289.675+413.103+291.647+409.803C304.631+410.313+314.145+409.254+321.048+415.203C324.863+418.492+327.953+424.508+330.647+429.603C333.202+434.433+336.259+441.329+340.848+443.103C344.926+444.679+352.096+443.616+353.747+440.404C357.515+433.077+350.164+420.383+347.447+415.503C337.377+397.414+320.492+387.608+314.447+366.003C313.291+361.87+311.867+356.707+313.548+352.203C318.677+350.308+323.757+353.295+328.848+353.403" opacity="1" fill="#8553a2"/>
<path d="M281.447+368.103C291.868+400.272+257.724+409.207+250.547+427.203C246.95+436.223+252.407+446.356+258.947+449.703C262.976+451.765+268.779+452.386+273.347+450.303C276.327+448.945+278.08+446.138+279.647+443.403C280.956+441.12+282.438+437.209+285.947+436.503C289.364+435.815+293.596+437.531+294.647+439.803C297.454+445.873+291.924+454.531+288.347+458.703C284.093+463.666+278.676+467.267+271.547+468.003C258.93+469.306+248.76+463.17+243.047+457.503C233.549+448.08+228.258+428.974+237.047+413.703C241.549+405.881+250.63+401.125+257.147+394.503C259.58+392.031+262.1+388.684+263.147+385.203C265.402+377.71+261.489+367.079+270.047+365.403C274.739+364.484+278.436+365.886+281.447+368.103" opacity="1" fill="#8553a2"/>
</g>
</g>
</g>
</g>
</svg>
